<mxfile host="app.diagrams.net" agent="Mozilla/5.0 (Windows NT 10.0; Win64; x64) AppleWebKit/537.36 (KHTML, like Gecko) Chrome/132.0.0.0 Safari/537.36" version="26.0.15">
  <diagram name="Page-1" id="f80A6QZ18gMu32bvnHT-">
    <mxGraphModel dx="794" dy="458" grid="1" gridSize="10" guides="1" tooltips="1" connect="1" arrows="1" fold="1" page="1" pageScale="1" pageWidth="850" pageHeight="1100" math="0" shadow="0">
      <root>
        <mxCell id="0" />
        <mxCell id="1" parent="0" />
        <mxCell id="QhTWb7Pbt5HctkMBt3LX-1" value="" style="outlineConnect=0;dashed=0;verticalLabelPosition=bottom;verticalAlign=top;align=center;html=1;shape=mxgraph.aws3.api_gateway;fillColor=#D9A741;gradientColor=none;" parent="1" vertex="1">
          <mxGeometry x="250" y="217" width="76.5" height="93" as="geometry" />
        </mxCell>
        <mxCell id="QhTWb7Pbt5HctkMBt3LX-2" value="" style="outlineConnect=0;dashed=0;verticalLabelPosition=bottom;verticalAlign=top;align=center;html=1;shape=mxgraph.aws3.lambda_function;fillColor=#F58534;gradientColor=none;" parent="1" vertex="1">
          <mxGeometry x="430.25" y="257" width="69" height="72" as="geometry" />
        </mxCell>
        <mxCell id="QhTWb7Pbt5HctkMBt3LX-3" value="" style="outlineConnect=0;dashed=0;verticalLabelPosition=bottom;verticalAlign=top;align=center;html=1;shape=mxgraph.aws3.lambda_function;fillColor=#F58534;gradientColor=none;" parent="1" vertex="1">
          <mxGeometry x="425" y="97" width="69" height="72" as="geometry" />
        </mxCell>
        <mxCell id="QhTWb7Pbt5HctkMBt3LX-4" value="" style="outlineConnect=0;dashed=0;verticalLabelPosition=bottom;verticalAlign=top;align=center;html=1;shape=mxgraph.aws3.bucket_with_objects;fillColor=#E05243;gradientColor=none;" parent="1" vertex="1">
          <mxGeometry x="670" y="232.5" width="60" height="61.5" as="geometry" />
        </mxCell>
        <mxCell id="QhTWb7Pbt5HctkMBt3LX-5" value="Client" style="sketch=0;outlineConnect=0;fontColor=#232F3E;gradientColor=none;strokeColor=#232F3E;fillColor=#ffffff;dashed=0;verticalLabelPosition=bottom;verticalAlign=top;align=center;html=1;fontSize=12;fontStyle=0;aspect=fixed;shape=mxgraph.aws4.resourceIcon;resIcon=mxgraph.aws4.client;" parent="1" vertex="1">
          <mxGeometry x="50" y="233.25" width="60" height="60" as="geometry" />
        </mxCell>
        <mxCell id="QhTWb7Pbt5HctkMBt3LX-7" value="" style="endArrow=open;endFill=1;endSize=12;html=1;rounded=0;" parent="1" edge="1">
          <mxGeometry width="160" relative="1" as="geometry">
            <mxPoint x="110" y="260.25" as="sourcePoint" />
            <mxPoint x="234" y="260.25" as="targetPoint" />
          </mxGeometry>
        </mxCell>
        <mxCell id="QhTWb7Pbt5HctkMBt3LX-8" value="1" style="ellipse;whiteSpace=wrap;html=1;aspect=fixed;rotation=0;gradientColor=#223548;strokeColor=none;gradientDirection=east;fillColor=#5b738b;rounded=0;pointerEvents=0;fontFamily=Helvetica;fontSize=16;fontColor=#FFFFFF;spacingTop=4;spacingBottom=4;spacingLeft=4;spacingRight=4;points=[];fontStyle=1" parent="1" vertex="1">
          <mxGeometry x="150" y="227" width="30" height="30" as="geometry" />
        </mxCell>
        <mxCell id="QhTWb7Pbt5HctkMBt3LX-10" value="2" style="ellipse;whiteSpace=wrap;html=1;aspect=fixed;rotation=0;gradientColor=#223548;strokeColor=none;gradientDirection=east;fillColor=#5b738b;rounded=0;pointerEvents=0;fontFamily=Helvetica;fontSize=16;fontColor=#FFFFFF;spacingTop=4;spacingBottom=4;spacingLeft=4;spacingRight=4;points=[];fontStyle=1" parent="1" vertex="1">
          <mxGeometry x="365.25" y="284" width="30" height="30" as="geometry" />
        </mxCell>
        <mxCell id="QhTWb7Pbt5HctkMBt3LX-11" value="3" style="ellipse;whiteSpace=wrap;html=1;aspect=fixed;rotation=0;gradientColor=#223548;strokeColor=none;gradientDirection=east;fillColor=#5b738b;rounded=0;pointerEvents=0;fontFamily=Helvetica;fontSize=16;fontColor=#FFFFFF;spacingTop=4;spacingBottom=4;spacingLeft=4;spacingRight=4;points=[];fontStyle=1" parent="1" vertex="1">
          <mxGeometry x="430" y="369" width="30" height="30" as="geometry" />
        </mxCell>
        <mxCell id="QhTWb7Pbt5HctkMBt3LX-12" value="4" style="ellipse;whiteSpace=wrap;html=1;aspect=fixed;rotation=0;gradientColor=#223548;strokeColor=none;gradientDirection=east;fillColor=#5b738b;rounded=0;pointerEvents=0;fontFamily=Helvetica;fontSize=16;fontColor=#FFFFFF;spacingTop=4;spacingBottom=4;spacingLeft=4;spacingRight=4;points=[];fontStyle=1" parent="1" vertex="1">
          <mxGeometry x="563" y="332" width="30" height="30" as="geometry" />
        </mxCell>
        <mxCell id="QhTWb7Pbt5HctkMBt3LX-13" value="5" style="ellipse;whiteSpace=wrap;html=1;aspect=fixed;rotation=0;gradientColor=#223548;strokeColor=none;gradientDirection=east;fillColor=#5b738b;rounded=0;pointerEvents=0;fontFamily=Helvetica;fontSize=16;fontColor=#FFFFFF;spacingTop=4;spacingBottom=4;spacingLeft=4;spacingRight=4;points=[];fontStyle=1" parent="1" vertex="1">
          <mxGeometry x="339" y="149" width="30" height="30" as="geometry" />
        </mxCell>
        <mxCell id="QhTWb7Pbt5HctkMBt3LX-14" value="" style="endArrow=open;endFill=1;endSize=12;html=1;rounded=0;exitX=0.627;exitY=-0.016;exitDx=0;exitDy=0;exitPerimeter=0;" parent="1" source="QhTWb7Pbt5HctkMBt3LX-1" edge="1">
          <mxGeometry width="160" relative="1" as="geometry">
            <mxPoint x="340" y="267" as="sourcePoint" />
            <mxPoint x="420" y="147" as="targetPoint" />
          </mxGeometry>
        </mxCell>
        <mxCell id="QhTWb7Pbt5HctkMBt3LX-16" value="" style="endArrow=open;endFill=1;endSize=12;html=1;rounded=0;" parent="1" source="QhTWb7Pbt5HctkMBt3LX-1" target="QhTWb7Pbt5HctkMBt3LX-2" edge="1">
          <mxGeometry width="160" relative="1" as="geometry">
            <mxPoint x="340" y="267" as="sourcePoint" />
            <mxPoint x="500" y="267" as="targetPoint" />
          </mxGeometry>
        </mxCell>
        <mxCell id="QhTWb7Pbt5HctkMBt3LX-17" value="" style="endArrow=open;endFill=1;endSize=12;html=1;rounded=0;exitX=1;exitY=0.5;exitDx=0;exitDy=0;exitPerimeter=0;entryX=0.06;entryY=0.5;entryDx=0;entryDy=0;entryPerimeter=0;" parent="1" source="QhTWb7Pbt5HctkMBt3LX-2" target="QhTWb7Pbt5HctkMBt3LX-4" edge="1">
          <mxGeometry width="160" relative="1" as="geometry">
            <mxPoint x="490" y="310" as="sourcePoint" />
            <mxPoint x="650" y="310" as="targetPoint" />
          </mxGeometry>
        </mxCell>
        <mxCell id="QhTWb7Pbt5HctkMBt3LX-18" value="Centralized Authorizer High Level Overview" style="text;html=1;align=center;verticalAlign=middle;whiteSpace=wrap;rounded=0;fontStyle=1" parent="1" vertex="1">
          <mxGeometry x="200" y="7" width="440" height="30" as="geometry" />
        </mxCell>
        <mxCell id="QhTWb7Pbt5HctkMBt3LX-19" value="Lambda Authorizer" style="text;html=1;align=center;verticalAlign=middle;whiteSpace=wrap;rounded=0;" parent="1" vertex="1">
          <mxGeometry x="428" y="61" width="60" height="30" as="geometry" />
        </mxCell>
        <mxCell id="QhTWb7Pbt5HctkMBt3LX-20" value="Image Store Lambda" style="text;html=1;align=center;verticalAlign=middle;whiteSpace=wrap;rounded=0;" parent="1" vertex="1">
          <mxGeometry x="429.5" y="329" width="70.5" height="30" as="geometry" />
        </mxCell>
        <mxCell id="QhTWb7Pbt5HctkMBt3LX-21" value="Private API Gateway" style="text;html=1;align=center;verticalAlign=middle;whiteSpace=wrap;rounded=0;" parent="1" vertex="1">
          <mxGeometry x="258.25" y="322" width="60" height="30" as="geometry" />
        </mxCell>
        <mxCell id="m8Cbewf-TGqWDKR0WGd0-2" value="" style="endArrow=open;endFill=1;endSize=12;html=1;rounded=0;entryX=0.413;entryY=-0.075;entryDx=0;entryDy=0;entryPerimeter=0;exitX=0.5;exitY=0;exitDx=0;exitDy=0;" edge="1" parent="1" source="m8Cbewf-TGqWDKR0WGd0-1">
          <mxGeometry width="160" relative="1" as="geometry">
            <mxPoint x="451" y="376" as="sourcePoint" />
            <mxPoint x="460.55999999999995" y="441.5" as="targetPoint" />
          </mxGeometry>
        </mxCell>
        <mxCell id="m8Cbewf-TGqWDKR0WGd0-1" value="OAuth 2.0" style="rounded=1;whiteSpace=wrap;html=1;" vertex="1" parent="1">
          <mxGeometry x="404.75" y="420" width="120" height="60" as="geometry" />
        </mxCell>
        <mxCell id="m8Cbewf-TGqWDKR0WGd0-4" value="" style="endArrow=open;endFill=1;endSize=12;html=1;rounded=0;entryX=0.5;entryY=0;entryDx=0;entryDy=0;exitX=0.5;exitY=0;exitDx=0;exitDy=0;" edge="1" parent="1" source="QhTWb7Pbt5HctkMBt3LX-20" target="m8Cbewf-TGqWDKR0WGd0-1">
          <mxGeometry width="160" relative="1" as="geometry">
            <mxPoint x="330" y="386" as="sourcePoint" />
            <mxPoint x="490" y="386" as="targetPoint" />
          </mxGeometry>
        </mxCell>
        <mxCell id="m8Cbewf-TGqWDKR0WGd0-5" value="" style="outlineConnect=0;dashed=0;verticalLabelPosition=bottom;verticalAlign=top;align=center;html=1;shape=mxgraph.aws3.dynamo_db;fillColor=#2E73B8;gradientColor=none;" vertex="1" parent="1">
          <mxGeometry x="644" y="381" width="72" height="81" as="geometry" />
        </mxCell>
        <mxCell id="m8Cbewf-TGqWDKR0WGd0-6" value="" style="endArrow=open;endFill=1;endSize=12;html=1;rounded=0;exitX=0.855;exitY=0.855;exitDx=0;exitDy=0;exitPerimeter=0;entryX=0;entryY=0.22;entryDx=0;entryDy=0;entryPerimeter=0;" edge="1" parent="1">
          <mxGeometry width="160" relative="1" as="geometry">
            <mxPoint x="484.2449999999999" y="318.55999999999995" as="sourcePoint" />
            <mxPoint x="639" y="398.82000000000005" as="targetPoint" />
          </mxGeometry>
        </mxCell>
        <mxCell id="m8Cbewf-TGqWDKR0WGd0-8" value="6" style="ellipse;whiteSpace=wrap;html=1;aspect=fixed;rotation=0;gradientColor=#223548;strokeColor=none;gradientDirection=east;fillColor=#5b738b;rounded=0;pointerEvents=0;fontFamily=Helvetica;fontSize=16;fontColor=#FFFFFF;spacingTop=4;spacingBottom=4;spacingLeft=4;spacingRight=4;points=[];fontStyle=1" vertex="1" parent="1">
          <mxGeometry x="570" y="245" width="30" height="30" as="geometry" />
        </mxCell>
      </root>
    </mxGraphModel>
  </diagram>
</mxfile>
